<?xml version="1.0" encoding="UTF-8" standalone="no"?><!DOCTYPE svg PUBLIC "-//W3C//DTD SVG 1.1//EN" "http://www.w3.org/Graphics/SVG/1.1/DTD/svg11.dtd"><svg width="100%" height="100%" viewBox="0 0 2000 1000" version="1.1" xmlns="http://www.w3.org/2000/svg" xmlns:xlink="http://www.w3.org/1999/xlink" xml:space="preserve" xmlns:serif="http://www.serif.com/" style="fill-rule:evenodd;clip-rule:evenodd;stroke-linecap:round;stroke-linejoin:round;stroke-miterlimit:1.5;"><g id="Text" transform="matrix(368.288547,0,0,368.288547,1416.87157,631.094898)"></g><text x="213.1px" y="631.095px" style="font-family:'VerdanaPro', 'Verdana Pro', sans-serif;font-size:368.289px;">HUNTI</text><g id="Scope"><path d="M1576.585,360.52c76.981,0 139.48,62.499 139.48,139.48c0,76.981 -62.499,139.48 -139.48,139.48c-76.981,0 -139.48,-62.499 -139.48,-139.48c0,-76.981 62.499,-139.48 139.48,-139.48Zm0,30.686c60.045,0 108.794,48.749 108.794,108.794c0,60.045 -48.749,108.794 -108.794,108.794c-60.045,0 -108.794,-48.749 -108.794,-108.794c0,-60.045 48.749,-108.794 108.794,-108.794Z" style="fill:#2b3cda;stroke:#2b3cda;stroke-width:0.17px;"/><path d="M1593.148,351.639l0,49.69c0,4.571 -3.711,8.282 -8.282,8.282l-16.563,0c-4.571,0 -8.282,-3.711 -8.282,-8.282l0,-49.69c0,-4.571 3.711,-8.282 8.282,-8.282l16.563,0c4.571,0 8.282,3.711 8.282,8.282Z" style="fill:#2b3cda;stroke:#2b3cda;stroke-width:0.17px;"/><path d="M1428.224,483.437l49.69,0c4.571,0 8.282,3.711 8.282,8.282l0,16.563c0,4.571 -3.711,8.282 -8.282,8.282l-49.69,0c-4.571,0 -8.282,-3.711 -8.282,-8.282l0,-16.563c0,-4.571 3.711,-8.282 8.282,-8.282Z" style="fill:#2b3cda;stroke:#2b3cda;stroke-width:0.17px;"/><path d="M1560.021,648.361l0,-49.69c0,-4.571 3.711,-8.282 8.282,-8.282l16.563,0c4.571,0 8.282,3.711 8.282,8.282l0,49.69c0,4.571 -3.711,8.282 -8.282,8.282l-16.563,0c-4.571,0 -8.282,-3.711 -8.282,-8.282Z" style="fill:#2b3cda;stroke:#2b3cda;stroke-width:0.17px;"/><path d="M1724.945,516.563l-49.69,0c-4.571,0 -8.282,-3.711 -8.282,-8.282l0,-16.563c0,-4.571 3.711,-8.282 8.282,-8.282l49.69,0c4.571,0 8.282,3.711 8.282,8.282l0,16.563c0,4.571 -3.711,8.282 -8.282,8.282Z" style="fill:#2b3cda;stroke:#2b3cda;stroke-width:0.17px;"/></g><g id="Tie"><g><path d="M1550.059,424.936c-0.751,-1.931 -0.501,-4.109 0.669,-5.819c1.17,-1.71 3.108,-2.733 5.18,-2.733l41.351,0c2.072,0 4.011,1.023 5.18,2.733c1.17,1.71 1.42,3.887 0.669,5.819c-3.13,8.049 -7.68,19.749 -10.044,25.827c-0.938,2.412 -3.261,4.002 -5.85,4.002l-21.264,0c-2.589,0 -4.912,-1.589 -5.85,-4.002c-2.363,-6.078 -6.913,-17.777 -10.044,-25.827l-0,0Z" style="stroke:#000;stroke-width:0.17px;"/></g><path d="M1606.435,549.745l-59.702,0c0,0 10.824,-63.622 14.037,-82.507c0.513,-3.017 3.127,-5.224 6.188,-5.224l19.253,0c3.06,0 5.674,2.207 6.188,5.224c3.213,18.885 14.037,82.507 14.037,82.507l0,0Z" style="stroke:#000;stroke-width:0.17px;"/><path d="M1576.585,583.616l-29.851,-33.871l59.702,0l-29.851,33.871Z"/></g></svg>